# xmcd
#
# Track frame offsets:
#	183
#	15328
#	31960
#
# Disc length: 767 seconds
#
# Revision: 3
# Processed by: cddbd v1.5.1PL0 Copyright (c) Steve Scherf et al.
# Submitted via: MusicWizard 7.0.2
#
DISCID=1402fd03
DTITLE=Bananarama - Cruel Summer '89
DYEAR=1989
DGENRE=Pop
TTITLE0=Cruel Summer '89 (Swing Beat Version)
TTITLE1=Venus (The Greatest Remix)
TTITLE2=I Heard A Rumour (Corporation Of Bananarama)
EXTD=
EXTT0=
EXTT1=
EXTT2=
PLAYORDER=
